<?xml version="1.0" encoding="UTF-8"?>
<svg xmlns="http://www.w3.org/2000/svg" xmlns:xlink="http://www.w3.org/1999/xlink" width="50px" height="70px" viewBox="0 0 89 74" version="1.1">
<g id="surface1">
<path style=" stroke:none;fill-rule:nonzero;fill:rgb(80.784315%,3.921569%,48.235294%);fill-opacity:1;" d="M 1.019531 27.011719 C 3.761719 14.707031 15.773438 3.5625 28.265625 1.835938 C 29.453125 1.671875 30.773438 1.609375 32.445312 1.667969 C 31.859375 2.558594 31.371094 3.308594 30.980469 3.925781 C 29.59375 6.101562 29.25 8.351562 30.558594 10.699219 C 31.789062 12.90625 33.628906 13.984375 36.179688 13.953125 C 40.050781 13.90625 43.925781 13.910156 47.796875 13.992188 C 52.617188 14.09375 54.957031 16.523438 54.929688 21.25 C 54.898438 25.945312 52.546875 28.238281 47.652344 28.296875 C 45.011719 28.328125 42.371094 28.257812 39.730469 28.324219 C 36.152344 28.417969 33.699219 31.023438 33.6875 34.636719 C 33.671875 38.285156 36.042969 40.917969 39.640625 41.046875 C 42.71875 41.15625 45.804688 41.042969 48.882812 41.109375 C 52.230469 41.179688 54.699219 43.570312 54.886719 46.914062 C 54.976562 48.503906 54.984375 50.113281 54.855469 51.699219 C 54.605469 54.808594 52.203125 57.113281 49.117188 57.160156 C 44.980469 57.222656 40.839844 57.226562 36.707031 57.140625 C 33.671875 57.078125 31.015625 57.808594 29.609375 60.71875 C 28.242188 63.550781 29.144531 66.246094 30.941406 68.566406 C 31.089844 68.757812 31.316406 69.066406 31.894531 69.796875 C 30.410156 69.796875 27.308594 69.476562 26.542969 69.3125 C 12.496094 66.277344 4.484375 57.671875 0.855469 43.496094 C 0.769531 43.164062 0 39.703125 0 35.101562 C 0 30.621094 0.910156 27.507812 1.019531 27.011719 "/>
<path style=" stroke:none;fill-rule:nonzero;fill:rgb(32.941177%,50.980395%,57.647061%);fill-opacity:1;" d="M 85.859375 35.667969 C 85.859375 44.808594 85.941406 53.949219 85.789062 63.082031 C 85.757812 65.039062 85.34375 67.324219 84.25 68.820312 C 83.265625 70.167969 81.121094 71.34375 79.457031 71.386719 C 69.605469 71.628906 59.742188 71.570312 49.882812 71.5 C 46.152344 71.476562 43.78125 68.785156 43.777344 64.960938 C 43.773438 61.027344 46.023438 58.363281 49.746094 58.25 C 54.054688 58.121094 58.371094 58.1875 62.683594 58.25 C 65.769531 58.296875 68.703125 57.726562 70.078125 54.691406 C 71.628906 51.269531 71.996094 47.460938 69.648438 44.300781 C 68.601562 42.894531 66.386719 41.902344 64.574219 41.644531 C 61.554688 41.210938 58.417969 41.675781 55.347656 41.484375 C 50.320312 41.171875 47.542969 37.09375 49 32.433594 C 49.894531 29.574219 52.058594 27.992188 55.425781 27.910156 C 58.328125 27.839844 61.238281 27.933594 64.140625 27.898438 C 68.367188 27.851562 70.78125 25.394531 70.898438 21.09375 C 71.019531 16.4375 68.703125 13.503906 64.46875 13.347656 C 60.160156 13.191406 55.839844 13.328125 51.527344 13.316406 C 47.617188 13.308594 44.847656 10.589844 44.796875 6.742188 C 44.742188 2.636719 47.128906 0.0820312 51.269531 0.0546875 C 60.339844 -0.0078125 69.40625 -0.0078125 78.472656 0.0351562 C 83.359375 0.0585938 85.777344 2.550781 85.816406 7.71875 C 85.890625 17.035156 85.839844 26.351562 85.839844 35.667969 C 85.84375 35.667969 85.851562 35.667969 85.859375 35.667969 "/>
</g>
</svg>
